<?xml version="1.0" encoding="utf-8" standalone="no"?>
<!DOCTYPE svg PUBLIC "-//W3C//DTD SVG 1.1//EN"
  "http://www.w3.org/Graphics/SVG/1.1/DTD/svg11.dtd">
<!-- Created with matplotlib (https://matplotlib.org/) -->
<svg height="345.6pt" version="1.1" viewBox="0 0 460.8 345.6" width="460.8pt" xmlns="http://www.w3.org/2000/svg" xmlns:xlink="http://www.w3.org/1999/xlink">
 <defs>
  <style type="text/css">
*{stroke-linecap:butt;stroke-linejoin:round;}
  </style>
 </defs>
 <g id="figure_1">
  <g id="patch_1">
   <path d="M 0 345.6 
L 460.8 345.6 
L 460.8 0 
L 0 0 
z
" style="fill:#ffffff;"/>
  </g>
  <g id="axes_1">
   <g id="patch_2">
    <path d="M 57.6 307.584 
L 414.72 307.584 
L 414.72 41.472 
L 57.6 41.472 
z
" style="fill:#ffffff;"/>
   </g>
   <g id="matplotlib.axis_1">
    <g id="xtick_1">
     <g id="line2d_1">
      <defs>
       <path d="M 0 0 
L 0 3.5 
" id="me3a6afff32" style="stroke:#000000;stroke-width:0.8;"/>
      </defs>
      <g>
       <use style="stroke:#000000;stroke-width:0.8;" x="73.832727" xlink:href="#me3a6afff32" y="307.584"/>
      </g>
     </g>
     <g id="text_1">
      <!-- 0 -->
      <defs>
       <path d="M 31.78125 66.40625 
Q 24.171875 66.40625 20.328125 58.90625 
Q 16.5 51.421875 16.5 36.375 
Q 16.5 21.390625 20.328125 13.890625 
Q 24.171875 6.390625 31.78125 6.390625 
Q 39.453125 6.390625 43.28125 13.890625 
Q 47.125 21.390625 47.125 36.375 
Q 47.125 51.421875 43.28125 58.90625 
Q 39.453125 66.40625 31.78125 66.40625 
z
M 31.78125 74.21875 
Q 44.046875 74.21875 50.515625 64.515625 
Q 56.984375 54.828125 56.984375 36.375 
Q 56.984375 17.96875 50.515625 8.265625 
Q 44.046875 -1.421875 31.78125 -1.421875 
Q 19.53125 -1.421875 13.0625 8.265625 
Q 6.59375 17.96875 6.59375 36.375 
Q 6.59375 54.828125 13.0625 64.515625 
Q 19.53125 74.21875 31.78125 74.21875 
z
" id="DejaVuSans-48"/>
      </defs>
      <g transform="translate(70.651477 322.182437)scale(0.1 -0.1)">
       <use xlink:href="#DejaVuSans-48"/>
      </g>
     </g>
    </g>
    <g id="xtick_2">
     <g id="line2d_2">
      <g>
       <use style="stroke:#000000;stroke-width:0.8;" x="147.95477" xlink:href="#me3a6afff32" y="307.584"/>
      </g>
     </g>
     <g id="text_2">
      <!-- 100 -->
      <defs>
       <path d="M 12.40625 8.296875 
L 28.515625 8.296875 
L 28.515625 63.921875 
L 10.984375 60.40625 
L 10.984375 69.390625 
L 28.421875 72.90625 
L 38.28125 72.90625 
L 38.28125 8.296875 
L 54.390625 8.296875 
L 54.390625 0 
L 12.40625 0 
z
" id="DejaVuSans-49"/>
      </defs>
      <g transform="translate(138.41102 322.182437)scale(0.1 -0.1)">
       <use xlink:href="#DejaVuSans-49"/>
       <use x="63.623047" xlink:href="#DejaVuSans-48"/>
       <use x="127.246094" xlink:href="#DejaVuSans-48"/>
      </g>
     </g>
    </g>
    <g id="xtick_3">
     <g id="line2d_3">
      <g>
       <use style="stroke:#000000;stroke-width:0.8;" x="222.076812" xlink:href="#me3a6afff32" y="307.584"/>
      </g>
     </g>
     <g id="text_3">
      <!-- 200 -->
      <defs>
       <path d="M 19.1875 8.296875 
L 53.609375 8.296875 
L 53.609375 0 
L 7.328125 0 
L 7.328125 8.296875 
Q 12.9375 14.109375 22.625 23.890625 
Q 32.328125 33.6875 34.8125 36.53125 
Q 39.546875 41.84375 41.421875 45.53125 
Q 43.3125 49.21875 43.3125 52.78125 
Q 43.3125 58.59375 39.234375 62.25 
Q 35.15625 65.921875 28.609375 65.921875 
Q 23.96875 65.921875 18.8125 64.3125 
Q 13.671875 62.703125 7.8125 59.421875 
L 7.8125 69.390625 
Q 13.765625 71.78125 18.9375 73 
Q 24.125 74.21875 28.421875 74.21875 
Q 39.75 74.21875 46.484375 68.546875 
Q 53.21875 62.890625 53.21875 53.421875 
Q 53.21875 48.921875 51.53125 44.890625 
Q 49.859375 40.875 45.40625 35.40625 
Q 44.1875 33.984375 37.640625 27.21875 
Q 31.109375 20.453125 19.1875 8.296875 
z
" id="DejaVuSans-50"/>
      </defs>
      <g transform="translate(212.533062 322.182437)scale(0.1 -0.1)">
       <use xlink:href="#DejaVuSans-50"/>
       <use x="63.623047" xlink:href="#DejaVuSans-48"/>
       <use x="127.246094" xlink:href="#DejaVuSans-48"/>
      </g>
     </g>
    </g>
    <g id="xtick_4">
     <g id="line2d_4">
      <g>
       <use style="stroke:#000000;stroke-width:0.8;" x="296.198854" xlink:href="#me3a6afff32" y="307.584"/>
      </g>
     </g>
     <g id="text_4">
      <!-- 300 -->
      <defs>
       <path d="M 40.578125 39.3125 
Q 47.65625 37.796875 51.625 33 
Q 55.609375 28.21875 55.609375 21.1875 
Q 55.609375 10.40625 48.1875 4.484375 
Q 40.765625 -1.421875 27.09375 -1.421875 
Q 22.515625 -1.421875 17.65625 -0.515625 
Q 12.796875 0.390625 7.625 2.203125 
L 7.625 11.71875 
Q 11.71875 9.328125 16.59375 8.109375 
Q 21.484375 6.890625 26.8125 6.890625 
Q 36.078125 6.890625 40.9375 10.546875 
Q 45.796875 14.203125 45.796875 21.1875 
Q 45.796875 27.640625 41.28125 31.265625 
Q 36.765625 34.90625 28.71875 34.90625 
L 20.21875 34.90625 
L 20.21875 43.015625 
L 29.109375 43.015625 
Q 36.375 43.015625 40.234375 45.921875 
Q 44.09375 48.828125 44.09375 54.296875 
Q 44.09375 59.90625 40.109375 62.90625 
Q 36.140625 65.921875 28.71875 65.921875 
Q 24.65625 65.921875 20.015625 65.03125 
Q 15.375 64.15625 9.8125 62.3125 
L 9.8125 71.09375 
Q 15.4375 72.65625 20.34375 73.4375 
Q 25.25 74.21875 29.59375 74.21875 
Q 40.828125 74.21875 47.359375 69.109375 
Q 53.90625 64.015625 53.90625 55.328125 
Q 53.90625 49.265625 50.4375 45.09375 
Q 46.96875 40.921875 40.578125 39.3125 
z
" id="DejaVuSans-51"/>
      </defs>
      <g transform="translate(286.655104 322.182437)scale(0.1 -0.1)">
       <use xlink:href="#DejaVuSans-51"/>
       <use x="63.623047" xlink:href="#DejaVuSans-48"/>
       <use x="127.246094" xlink:href="#DejaVuSans-48"/>
      </g>
     </g>
    </g>
    <g id="xtick_5">
     <g id="line2d_5">
      <g>
       <use style="stroke:#000000;stroke-width:0.8;" x="370.320897" xlink:href="#me3a6afff32" y="307.584"/>
      </g>
     </g>
     <g id="text_5">
      <!-- 400 -->
      <defs>
       <path d="M 37.796875 64.3125 
L 12.890625 25.390625 
L 37.796875 25.390625 
z
M 35.203125 72.90625 
L 47.609375 72.90625 
L 47.609375 25.390625 
L 58.015625 25.390625 
L 58.015625 17.1875 
L 47.609375 17.1875 
L 47.609375 0 
L 37.796875 0 
L 37.796875 17.1875 
L 4.890625 17.1875 
L 4.890625 26.703125 
z
" id="DejaVuSans-52"/>
      </defs>
      <g transform="translate(360.777147 322.182437)scale(0.1 -0.1)">
       <use xlink:href="#DejaVuSans-52"/>
       <use x="63.623047" xlink:href="#DejaVuSans-48"/>
       <use x="127.246094" xlink:href="#DejaVuSans-48"/>
      </g>
     </g>
    </g>
   </g>
   <g id="matplotlib.axis_2">
    <g id="ytick_1">
     <g id="line2d_6">
      <defs>
       <path d="M 0 0 
L -3.5 0 
" id="md4a2eaf29b" style="stroke:#000000;stroke-width:0.8;"/>
      </defs>
      <g>
       <use style="stroke:#000000;stroke-width:0.8;" x="57.6" xlink:href="#md4a2eaf29b" y="298.981446"/>
      </g>
     </g>
     <g id="text_6">
      <!-- 0 -->
      <g transform="translate(44.2375 302.780665)scale(0.1 -0.1)">
       <use xlink:href="#DejaVuSans-48"/>
      </g>
     </g>
    </g>
    <g id="ytick_2">
     <g id="line2d_7">
      <g>
       <use style="stroke:#000000;stroke-width:0.8;" x="57.6" xlink:href="#md4a2eaf29b" y="253.553019"/>
      </g>
     </g>
     <g id="text_7">
      <!-- 50 -->
      <defs>
       <path d="M 10.796875 72.90625 
L 49.515625 72.90625 
L 49.515625 64.59375 
L 19.828125 64.59375 
L 19.828125 46.734375 
Q 21.96875 47.46875 24.109375 47.828125 
Q 26.265625 48.1875 28.421875 48.1875 
Q 40.625 48.1875 47.75 41.5 
Q 54.890625 34.8125 54.890625 23.390625 
Q 54.890625 11.625 47.5625 5.09375 
Q 40.234375 -1.421875 26.90625 -1.421875 
Q 22.3125 -1.421875 17.546875 -0.640625 
Q 12.796875 0.140625 7.71875 1.703125 
L 7.71875 11.625 
Q 12.109375 9.234375 16.796875 8.0625 
Q 21.484375 6.890625 26.703125 6.890625 
Q 35.15625 6.890625 40.078125 11.328125 
Q 45.015625 15.765625 45.015625 23.390625 
Q 45.015625 31 40.078125 35.4375 
Q 35.15625 39.890625 26.703125 39.890625 
Q 22.75 39.890625 18.8125 39.015625 
Q 14.890625 38.140625 10.796875 36.28125 
z
" id="DejaVuSans-53"/>
      </defs>
      <g transform="translate(37.875 257.352238)scale(0.1 -0.1)">
       <use xlink:href="#DejaVuSans-53"/>
       <use x="63.623047" xlink:href="#DejaVuSans-48"/>
      </g>
     </g>
    </g>
    <g id="ytick_3">
     <g id="line2d_8">
      <g>
       <use style="stroke:#000000;stroke-width:0.8;" x="57.6" xlink:href="#md4a2eaf29b" y="208.124593"/>
      </g>
     </g>
     <g id="text_8">
      <!-- 100 -->
      <g transform="translate(31.5125 211.923812)scale(0.1 -0.1)">
       <use xlink:href="#DejaVuSans-49"/>
       <use x="63.623047" xlink:href="#DejaVuSans-48"/>
       <use x="127.246094" xlink:href="#DejaVuSans-48"/>
      </g>
     </g>
    </g>
    <g id="ytick_4">
     <g id="line2d_9">
      <g>
       <use style="stroke:#000000;stroke-width:0.8;" x="57.6" xlink:href="#md4a2eaf29b" y="162.696166"/>
      </g>
     </g>
     <g id="text_9">
      <!-- 150 -->
      <g transform="translate(31.5125 166.495385)scale(0.1 -0.1)">
       <use xlink:href="#DejaVuSans-49"/>
       <use x="63.623047" xlink:href="#DejaVuSans-53"/>
       <use x="127.246094" xlink:href="#DejaVuSans-48"/>
      </g>
     </g>
    </g>
    <g id="ytick_5">
     <g id="line2d_10">
      <g>
       <use style="stroke:#000000;stroke-width:0.8;" x="57.6" xlink:href="#md4a2eaf29b" y="117.26774"/>
      </g>
     </g>
     <g id="text_10">
      <!-- 200 -->
      <g transform="translate(31.5125 121.066958)scale(0.1 -0.1)">
       <use xlink:href="#DejaVuSans-50"/>
       <use x="63.623047" xlink:href="#DejaVuSans-48"/>
       <use x="127.246094" xlink:href="#DejaVuSans-48"/>
      </g>
     </g>
    </g>
    <g id="ytick_6">
     <g id="line2d_11">
      <g>
       <use style="stroke:#000000;stroke-width:0.8;" x="57.6" xlink:href="#md4a2eaf29b" y="71.839313"/>
      </g>
     </g>
     <g id="text_11">
      <!-- 250 -->
      <g transform="translate(31.5125 75.638532)scale(0.1 -0.1)">
       <use xlink:href="#DejaVuSans-50"/>
       <use x="63.623047" xlink:href="#DejaVuSans-53"/>
       <use x="127.246094" xlink:href="#DejaVuSans-48"/>
      </g>
     </g>
    </g>
   </g>
   <g id="line2d_12">
    <path clip-path="url(#p43e62d0f70)" d="M 73.832727 294.747517 
L 74.573948 294.820202 
L 75.315168 295.038259 
L 76.056389 294.938316 
L 77.538829 295.02463 
L 78.28005 294.906516 
L 82.727372 294.983744 
L 85.692254 295.038259 
L 87.915915 294.901973 
L 90.880797 294.983744 
L 93.104458 294.979202 
L 94.586899 295.006459 
L 102.740324 294.856545 
L 103.481544 295.001916 
L 104.222765 294.874716 
L 104.963985 294.915602 
L 106.446426 294.679374 
L 107.187646 294.838374 
L 111.634969 294.915602 
L 116.823512 294.888345 
L 121.270834 294.997373 
L 123.494496 294.997373 
L 125.718157 295.029173 
L 127.941818 295.060973 
L 132.389141 295.083687 
L 133.871582 294.89743 
L 138.318904 295.070058 
L 141.283786 295.188172 
L 143.507447 295.160915 
L 158.331856 295.342629 
L 159.073076 295.324458 
L 159.814296 295.488 
L 161.296737 295.478914 
L 162.037958 295.478914 
L 162.779178 295.329001 
L 164.261619 295.3926 
L 165.74406 295.3926 
L 186.498232 295.374429 
L 201.32264 295.274486 
L 205.028742 295.215429 
L 206.511183 295.301743 
L 208.734844 295.292658 
L 213.182167 295.306286 
L 221.335592 295.356258 
L 222.076812 295.179087 
L 224.300473 295.192715 
L 247.278306 295.242686 
L 250.984408 295.233601 
L 251.725629 293.779891 
L 252.466849 293.584549 
L 253.20807 293.820777 
L 253.94929 293.561835 
L 254.690511 293.684491 
L 255.431731 294.16149 
L 256.172951 294.293232 
L 256.914172 294.270518 
L 257.655392 294.375004 
L 259.137833 294.03429 
L 261.361494 293.938891 
L 262.843935 293.947976 
L 263.585156 293.902548 
L 264.326376 293.589092 
L 265.067597 293.580006 
L 265.808817 293.72992 
L 267.291258 293.66632 
L 269.514919 293.829862 
L 271.73858 293.811691 
L 278.409564 294.265975 
L 279.150785 294.125147 
L 280.633225 294.143319 
L 281.374446 293.961605 
L 284.339328 293.925262 
L 285.821768 293.857119 
L 288.04543 293.929805 
L 290.269091 293.843491 
L 298.422516 294.016119 
L 301.387397 294.016119 
L 303.611059 294.088804 
L 305.093499 294.116062 
L 305.83472 294.311404 
L 310.282042 294.370461 
L 311.023263 294.742974 
L 311.764483 294.583974 
L 312.505704 294.683917 
L 316.953026 294.629403 
L 323.62401 294.765688 
L 325.847671 294.738431 
L 331.036214 294.838374 
L 334.001096 294.806574 
L 336.965978 294.856545 
L 339.930859 294.797488 
L 340.67208 295.033716 
L 342.895741 295.142744 
L 344.378182 294.979202 
L 345.119402 294.852002 
L 347.343064 294.865631 
L 356.237709 294.892888 
L 358.46137 294.920145 
L 364.391133 294.797488 
L 365.132354 294.761145 
L 365.873574 294.856545 
L 368.097235 294.815659 
L 369.579676 294.888345 
L 372.544558 294.938316 
L 374.026999 294.847459 
L 379.956762 294.920145 
L 391.075068 294.888345 
L 395.522391 294.874716 
L 398.487273 294.888345 
L 398.487273 294.888345 
" style="fill:none;stroke:#1f77b4;stroke-linecap:square;stroke-width:1.5;"/>
   </g>
   <g id="line2d_13">
    <path clip-path="url(#p43e62d0f70)" d="M 73.832727 278.011684 
L 74.573948 277.875399 
L 75.315168 277.89357 
L 76.056389 277.471086 
L 76.797609 277.357515 
L 77.538829 277.611914 
L 79.762491 277.6846 
L 80.503711 277.875399 
L 81.986152 277.720942 
L 82.727372 277.848142 
L 85.692254 277.739114 
L 86.433474 277.521057 
L 87.174695 277.539229 
L 87.915915 277.95717 
L 90.139577 277.739114 
L 90.880797 277.739114 
L 91.622017 277.607371 
L 92.363238 277.6846 
L 93.104458 277.575571 
L 93.845679 277.648257 
L 94.586899 277.393858 
L 97.551781 277.15763 
L 98.293001 277.234858 
L 99.034222 277.034973 
L 99.775442 277.025887 
L 100.516663 276.903231 
L 102.740324 277.144001 
L 103.481544 278.02077 
L 104.222765 278.093455 
L 106.446426 277.571029 
L 107.187646 277.902656 
L 107.928867 277.938999 
L 108.670087 277.475629 
L 109.411308 277.720942 
L 113.11741 277.552857 
L 113.85863 277.621 
L 116.823512 277.384772 
L 118.305953 277.552857 
L 119.047173 277.412029 
L 119.788394 277.602828 
L 129.424259 277.298458 
L 130.165479 277.153087 
L 130.9067 277.130373 
L 131.64792 277.312087 
L 132.389141 277.312087 
L 133.130361 277.884485 
L 133.871582 276.53526 
L 134.612802 276.439861 
L 135.354022 276.712431 
L 136.095243 276.780574 
L 136.836463 277.007716 
L 137.577684 276.889602 
L 139.801345 277.139459 
L 140.542565 276.75786 
L 142.025006 276.385347 
L 142.766227 276.539803 
L 144.248667 276.317204 
L 144.989888 276.35809 
L 145.731108 276.249061 
L 146.472329 276.635203 
L 147.95477 276.82146 
L 149.43721 276.880516 
L 150.178431 277.166716 
L 150.919651 277.239401 
L 151.660872 277.075859 
L 153.143313 277.107659 
L 156.108194 278.088913 
L 156.849415 278.297883 
L 157.590635 278.329683 
L 159.073076 278.152512 
L 159.814296 278.293341 
L 161.296737 278.152512 
L 162.037958 278.152512 
L 162.779178 277.466543 
L 163.520399 277.239401 
L 165.002839 277.584657 
L 165.74406 277.139459 
L 166.48528 277.203058 
L 167.226501 276.953202 
L 167.967721 277.03043 
L 168.708941 276.898688 
L 169.450162 276.916859 
L 170.191382 277.075859 
L 170.932603 277.075859 
L 171.673823 276.944116 
L 173.156264 277.225773 
L 173.897484 277.225773 
L 174.638705 276.962288 
L 176.121146 276.812374 
L 179.086027 277.144001 
L 179.827248 277.066773 
L 182.050909 277.212144 
L 185.015791 277.171258 
L 186.498232 277.425658 
L 188.721893 277.575571 
L 189.463113 277.09403 
L 190.945554 277.171258 
L 191.686775 277.171258 
L 192.427995 276.176376 
L 193.169215 275.917434 
L 193.910436 275.944691 
L 194.651656 276.308118 
L 195.392877 276.508003 
L 197.616538 276.144576 
L 199.098979 276.380804 
L 200.58142 276.076433 
L 202.805081 276.017376 
L 203.546301 276.121862 
L 204.287522 276.003748 
L 207.252403 276.403518 
L 209.476065 276.621574 
L 211.699726 276.612489 
L 215.405828 276.903231 
L 216.147049 276.903231 
L 216.888269 277.134916 
L 217.629489 277.084944 
L 218.37071 276.912316 
L 219.853151 276.957745 
L 220.594371 277.098573 
L 221.335592 277.098573 
L 222.076812 276.367175 
L 222.818032 276.498918 
L 223.559253 275.776606 
L 224.300473 275.572178 
L 225.041694 275.808406 
L 225.782914 275.867463 
L 226.524134 275.694835 
L 227.265355 275.731177 
L 228.006575 275.958319 
L 228.747796 275.79932 
L 230.230237 275.713006 
L 235.41878 275.608521 
L 236.16 275.649406 
L 237.642441 275.490407 
L 240.607323 275.517664 
L 244.313425 275.281436 
L 245.795866 275.349579 
L 247.278306 275.322321 
L 248.760747 275.345036 
L 249.501968 275.276893 
L 250.984408 275.385921 
L 251.725629 276.076433 
L 252.466849 275.83112 
L 255.431731 276.076433 
L 256.172951 275.89472 
L 259.137833 276.003748 
L 260.620274 275.967405 
L 265.067597 275.79932 
L 268.032478 275.522207 
L 273.221021 275.785691 
L 274.703462 275.713006 
L 276.185903 275.690292 
L 277.668344 275.999205 
L 279.150785 275.912891 
L 280.633225 275.971948 
L 281.374446 275.676663 
L 282.115666 275.731177 
L 282.856887 275.667577 
L 283.598107 275.753891 
L 284.339328 275.522207 
L 285.821768 275.785691 
L 286.562989 275.822034 
L 287.304209 275.567635 
L 290.269091 275.267807 
L 291.751532 275.440435 
L 294.716413 275.358664 
L 295.457634 275.058837 
L 298.422516 275.472235 
L 300.646177 275.217836 
L 302.128618 275.395007 
L 302.869838 275.281436 
L 304.352279 275.236007 
L 305.093499 274.31381 
L 305.83472 272.910072 
L 306.57594 272.224103 
L 307.317161 273.028186 
L 308.058381 272.469416 
L 308.799601 272.542102 
L 309.540822 273.259871 
L 310.282042 273.259871 
L 311.023263 274.213868 
L 312.505704 274.495524 
L 313.246924 274.182068 
L 313.988144 274.613638 
L 314.729365 274.418296 
L 315.470585 274.718123 
L 316.953026 274.858951 
L 319.176687 275.131522 
L 319.917908 275.349579 
L 320.659128 275.70392 
L 321.400349 275.713006 
L 322.88279 276.021919 
L 324.36523 275.79932 
L 325.106451 275.808406 
L 325.847671 275.685749 
L 326.588892 275.749349 
L 327.330112 275.594892 
L 329.553773 275.653949 
L 330.294994 275.808406 
L 334.742316 275.426807 
L 335.483537 275.585806 
L 339.930859 275.217836 
L 340.67208 275.46315 
L 342.154521 274.849866 
L 342.895741 275.531292 
L 344.378182 275.70392 
L 345.119402 275.167865 
L 345.860623 275.072465 
L 346.601843 274.781723 
L 348.084284 274.477353 
L 349.566725 275.008865 
L 350.307945 275.036122 
L 351.790386 274.877123 
L 353.272827 275.058837 
L 354.014047 274.99978 
L 354.755268 275.131522 
L 355.496488 275.090636 
L 357.720149 274.513695 
L 359.20259 274.463724 
L 359.943811 274.672695 
L 366.614795 273.964011 
L 367.356015 274.086668 
L 368.097235 273.950383 
L 368.838456 273.695984 
L 369.579676 273.695984 
L 370.320897 274.068497 
L 371.062117 273.496099 
L 371.803337 273.377985 
L 372.544558 273.491556 
L 374.026999 273.191728 
L 374.768219 273.2417 
L 375.50944 273.041814 
L 377.733101 273.60967 
L 378.474321 273.459756 
L 379.215542 273.496099 
L 379.956762 273.795926 
L 381.439203 273.932212 
L 382.921644 273.854983 
L 384.404085 274.168439 
L 385.886526 273.973097 
L 390.333848 273.786841 
L 391.816289 273.968554 
L 394.03995 274.123011 
L 396.263611 273.950383 
L 398.487273 273.900412 
L 398.487273 273.900412 
" style="fill:none;stroke:#ff7f0e;stroke-linecap:square;stroke-width:1.5;"/>
   </g>
   <g id="line2d_14">
    <path clip-path="url(#p43e62d0f70)" d="M 73.832727 61.136376 
L 74.573948 61.136376 
L 76.056389 60.66392 
L 76.797609 60.66392 
L 77.538829 61.263575 
L 78.28005 60.954662 
L 79.02127 60.954662 
L 79.762491 60.645749 
L 80.503711 61.381689 
L 82.727372 62.090373 
L 83.468593 62.749085 
L 84.209813 62.926256 
L 84.951034 63.31694 
L 88.657136 63.253341 
L 89.398356 63.053455 
L 90.139577 63.598597 
L 90.880797 63.439597 
L 91.622017 63.762139 
L 95.32812 63.680368 
L 96.06934 63.071627 
L 96.81056 63.189741 
L 98.293001 63.10797 
L 99.775442 63.10797 
L 101.257883 62.880827 
L 101.999103 63.207912 
L 102.740324 63.207912 
L 103.481544 65.561105 
L 104.222765 65.63379 
L 104.963985 65.288534 
L 105.705205 64.107395 
L 107.187646 64.016538 
L 107.928867 64.379966 
L 110.893748 64.343623 
L 111.634969 64.007452 
L 112.376189 64.443565 
L 113.11741 63.712168 
L 115.341071 63.680368 
L 116.082291 63.962024 
L 119.047173 64.184623 
L 119.788394 64.498079 
L 120.529614 64.64345 
L 121.270834 64.361794 
L 122.753275 64.443565 
L 124.235716 63.753053 
L 124.976936 63.984738 
L 125.718157 64.030167 
L 126.459377 63.952938 
L 127.200598 63.071627 
L 127.941818 63.162484 
L 128.683039 62.590086 
L 129.424259 62.562828 
L 130.165479 62.290258 
L 130.9067 62.172144 
L 132.389141 62.217572 
L 133.130361 59.192039 
L 133.871582 59.192039 
L 134.612802 58.41067 
L 136.095243 58.306185 
L 136.836463 58.87404 
L 137.577684 58.87404 
L 138.318904 58.637812 
L 139.060125 58.637812 
L 139.801345 58.387956 
L 140.542565 58.387956 
L 141.283786 58.029071 
L 144.248667 57.920043 
L 144.989888 57.565702 
L 145.731108 57.856443 
L 147.213549 58.024529 
L 147.95477 58.0109 
L 148.69599 58.365242 
L 152.402092 58.365242 
L 153.143313 57.938215 
L 153.884533 57.665644 
L 155.366974 57.701987 
L 156.108194 58.029071 
L 157.590635 58.029071 
L 158.331856 58.551498 
L 159.073076 58.551498 
L 159.814296 59.52821 
L 160.555517 59.873466 
L 161.296737 59.709923 
L 162.037958 59.709923 
L 162.779178 58.401585 
L 165.002839 58.401585 
L 165.74406 60.60032 
L 166.48528 59.882551 
L 167.226501 59.882551 
L 167.967721 58.946726 
L 168.708941 58.946726 
L 169.450162 59.382839 
L 170.932603 59.382839 
L 171.673823 59.855294 
L 172.415044 59.809866 
L 173.156264 60.382264 
L 176.862366 60.382264 
L 177.603587 59.437353 
L 181.309689 59.437353 
L 182.050909 59.278353 
L 182.79213 59.355582 
L 183.53335 59.937065 
L 184.27457 59.80078 
L 187.980672 59.80078 
L 188.721893 60.037008 
L 189.463113 60.909234 
L 190.204334 61.327175 
L 191.686775 61.372604 
L 192.427995 58.365242 
L 193.910436 58.019986 
L 194.651656 58.546956 
L 195.392877 58.828612 
L 196.134097 58.437927 
L 196.875318 58.437927 
L 198.357758 58.892212 
L 200.58142 58.060871 
L 202.805081 58.060871 
L 203.546301 57.038732 
L 204.287522 57.520273 
L 207.252403 57.629301 
L 207.993624 57.338559 
L 208.734844 57.338559 
L 209.476065 57.638387 
L 212.440946 57.602044 
L 213.923387 58.292556 
L 214.664608 58.174442 
L 215.405828 58.174442 
L 216.147049 58.592384 
L 216.888269 58.655984 
L 217.629489 58.256214 
L 218.37071 58.665069 
L 219.853151 59.119354 
L 220.594371 58.87404 
L 221.335592 58.87404 
L 222.076812 56.393648 
L 222.818032 56.225563 
L 224.300473 56.225563 
L 225.041694 55.575936 
L 226.524134 55.657708 
L 233.195118 55.657708 
L 233.936339 55.339709 
L 235.41878 55.366966 
L 236.16 55.221595 
L 239.124882 55.221595 
L 239.866102 55.507794 
L 246.537086 55.448737 
L 248.019527 55.366966 
L 249.501968 54.667368 
L 250.984408 54.749139 
L 251.725629 56.793418 
L 252.466849 56.793418 
L 253.20807 56.084735 
L 254.690511 56.002964 
L 256.172951 56.102906 
L 256.914172 55.866678 
L 259.137833 55.793993 
L 259.879054 55.412394 
L 261.361494 55.267023 
L 262.843935 55.335166 
L 264.326376 54.612854 
L 265.067597 54.612854 
L 265.808817 54.43114 
L 267.291258 54.43114 
L 268.032478 53.93597 
L 268.773699 53.667943 
L 269.514919 53.667943 
L 270.256139 53.885999 
L 270.99736 53.931427 
L 271.73858 54.349369 
L 275.444682 54.272141 
L 276.185903 53.568 
L 276.927123 53.6316 
L 277.668344 53.822399 
L 278.409564 53.822399 
L 279.150785 54.067713 
L 279.892005 54.485654 
L 280.633225 54.485654 
L 281.374446 53.840571 
L 282.115666 54.939938 
L 282.856887 54.944481 
L 283.598107 55.167081 
L 284.339328 54.876339 
L 285.080548 55.167081 
L 285.821768 54.785482 
L 286.562989 55.248852 
L 287.304209 54.585597 
L 288.78665 54.512911 
L 289.52787 54.331198 
L 290.269091 54.803653 
L 291.751532 54.803653 
L 292.492752 54.676454 
L 293.975193 54.76731 
L 297.681295 54.794568 
L 298.422516 56.28462 
L 299.904956 55.775822 
L 300.646177 55.703136 
L 301.387397 55.88485 
L 302.128618 55.88485 
L 303.611059 56.22102 
L 304.352279 56.22102 
L 305.093499 55.871221 
L 305.83472 56.030221 
L 306.57594 56.339134 
L 308.058381 57.592959 
L 309.540822 59.709923 
L 310.282042 59.709923 
L 311.023263 61.817802 
L 312.505704 61.817802 
L 313.246924 60.318664 
L 314.729365 60.39135 
L 315.470585 59.837123 
L 316.953026 59.837123 
L 317.694247 60.986462 
L 318.435467 61.263575 
L 319.176687 61.263575 
L 319.917908 62.753628 
L 320.659128 62.794513 
L 322.141569 64.752479 
L 322.88279 64.70705 
L 323.62401 64.311823 
L 325.106451 64.311823 
L 325.847671 63.734882 
L 326.588892 64.70705 
L 327.330112 64.016538 
L 328.071333 64.052881 
L 328.812553 64.234595 
L 329.553773 64.116481 
L 330.294994 64.116481 
L 331.036214 64.534422 
L 331.777435 64.220966 
L 334.001096 64.220966 
L 334.742316 65.315791 
L 335.483537 64.270937 
L 336.224757 65.252191 
L 336.965978 65.552019 
L 337.707198 65.043221 
L 338.448418 64.261852 
L 339.189639 63.698539 
L 339.930859 63.698539 
L 340.67208 66.133503 
L 341.4133 66.642301 
L 342.154521 67.877954 
L 342.895741 67.587212 
L 343.636961 67.587212 
L 344.378182 67.014814 
L 345.860623 67.032986 
L 346.601843 64.788821 
L 347.343064 64.788821 
L 348.084284 64.525336 
L 348.825504 65.347591 
L 349.566725 64.607108 
L 350.307945 65.406648 
L 351.790386 65.333962 
L 352.531606 65.115906 
L 355.496488 65.115906 
L 356.237709 63.534997 
L 356.978929 63.489568 
L 357.720149 62.971684 
L 358.46137 62.253915 
L 359.20259 62.91717 
L 359.943811 62.91717 
L 360.685031 63.880253 
L 363.649913 63.880253 
L 364.391133 63.698539 
L 365.132354 62.608257 
L 365.873574 62.762714 
L 366.614795 62.153973 
L 367.356015 62.153973 
L 368.838456 61.445289 
L 369.579676 61.445289 
L 370.320897 63.135227 
L 371.062117 62.235744 
L 372.544558 62.235744 
L 373.285778 61.172719 
L 374.026999 61.845059 
L 376.25066 61.890488 
L 376.99188 63.435054 
L 378.474321 62.708199 
L 379.215542 62.708199 
L 379.956762 62.835399 
L 380.697983 62.544657 
L 381.439203 62.02223 
L 382.180423 62.122173 
L 383.662864 61.499803 
L 384.404085 61.863231 
L 385.145305 61.999516 
L 385.886526 61.499803 
L 388.851407 61.408946 
L 389.592628 61.136376 
L 390.333848 60.582149 
L 391.816289 60.60032 
L 392.557509 61.199976 
L 393.29873 61.109119 
L 394.03995 61.154547 
L 394.781171 60.745691 
L 395.522391 61.027348 
L 396.263611 60.500378 
L 397.004832 60.500378 
L 397.746052 61.145462 
L 398.487273 60.027922 
L 398.487273 60.027922 
" style="fill:none;stroke:#2ca02c;stroke-linecap:square;stroke-width:1.5;"/>
   </g>
   <g id="patch_3">
    <path d="M 57.6 307.584 
L 57.6 41.472 
" style="fill:none;stroke:#000000;stroke-linecap:square;stroke-linejoin:miter;stroke-width:0.8;"/>
   </g>
   <g id="patch_4">
    <path d="M 414.72 307.584 
L 414.72 41.472 
" style="fill:none;stroke:#000000;stroke-linecap:square;stroke-linejoin:miter;stroke-width:0.8;"/>
   </g>
   <g id="patch_5">
    <path d="M 57.6 307.584 
L 414.72 307.584 
" style="fill:none;stroke:#000000;stroke-linecap:square;stroke-linejoin:miter;stroke-width:0.8;"/>
   </g>
   <g id="patch_6">
    <path d="M 57.6 41.472 
L 414.72 41.472 
" style="fill:none;stroke:#000000;stroke-linecap:square;stroke-linejoin:miter;stroke-width:0.8;"/>
   </g>
   <g id="legend_1">
    <g id="patch_7">
     <path d="M 317.67625 198.462375 
L 407.72 198.462375 
Q 409.72 198.462375 409.72 196.462375 
L 409.72 152.593625 
Q 409.72 150.593625 407.72 150.593625 
L 317.67625 150.593625 
Q 315.67625 150.593625 315.67625 152.593625 
L 315.67625 196.462375 
Q 315.67625 198.462375 317.67625 198.462375 
z
" style="fill:#ffffff;opacity:0.8;stroke:#cccccc;stroke-linejoin:miter;"/>
    </g>
    <g id="line2d_15">
     <path d="M 319.67625 158.692063 
L 339.67625 158.692063 
" style="fill:none;stroke:#1f77b4;stroke-linecap:square;stroke-width:1.5;"/>
    </g>
    <g id="line2d_16"/>
    <g id="text_12">
     <!-- close_amc -->
     <defs>
      <path d="M 48.78125 52.59375 
L 48.78125 44.1875 
Q 44.96875 46.296875 41.140625 47.34375 
Q 37.3125 48.390625 33.40625 48.390625 
Q 24.65625 48.390625 19.8125 42.84375 
Q 14.984375 37.3125 14.984375 27.296875 
Q 14.984375 17.28125 19.8125 11.734375 
Q 24.65625 6.203125 33.40625 6.203125 
Q 37.3125 6.203125 41.140625 7.25 
Q 44.96875 8.296875 48.78125 10.40625 
L 48.78125 2.09375 
Q 45.015625 0.34375 40.984375 -0.53125 
Q 36.96875 -1.421875 32.421875 -1.421875 
Q 20.0625 -1.421875 12.78125 6.34375 
Q 5.515625 14.109375 5.515625 27.296875 
Q 5.515625 40.671875 12.859375 48.328125 
Q 20.21875 56 33.015625 56 
Q 37.15625 56 41.109375 55.140625 
Q 45.0625 54.296875 48.78125 52.59375 
z
" id="DejaVuSans-99"/>
      <path d="M 9.421875 75.984375 
L 18.40625 75.984375 
L 18.40625 0 
L 9.421875 0 
z
" id="DejaVuSans-108"/>
      <path d="M 30.609375 48.390625 
Q 23.390625 48.390625 19.1875 42.75 
Q 14.984375 37.109375 14.984375 27.296875 
Q 14.984375 17.484375 19.15625 11.84375 
Q 23.34375 6.203125 30.609375 6.203125 
Q 37.796875 6.203125 41.984375 11.859375 
Q 46.1875 17.53125 46.1875 27.296875 
Q 46.1875 37.015625 41.984375 42.703125 
Q 37.796875 48.390625 30.609375 48.390625 
z
M 30.609375 56 
Q 42.328125 56 49.015625 48.375 
Q 55.71875 40.765625 55.71875 27.296875 
Q 55.71875 13.875 49.015625 6.21875 
Q 42.328125 -1.421875 30.609375 -1.421875 
Q 18.84375 -1.421875 12.171875 6.21875 
Q 5.515625 13.875 5.515625 27.296875 
Q 5.515625 40.765625 12.171875 48.375 
Q 18.84375 56 30.609375 56 
z
" id="DejaVuSans-111"/>
      <path d="M 44.28125 53.078125 
L 44.28125 44.578125 
Q 40.484375 46.53125 36.375 47.5 
Q 32.28125 48.484375 27.875 48.484375 
Q 21.1875 48.484375 17.84375 46.4375 
Q 14.5 44.390625 14.5 40.28125 
Q 14.5 37.15625 16.890625 35.375 
Q 19.28125 33.59375 26.515625 31.984375 
L 29.59375 31.296875 
Q 39.15625 29.25 43.1875 25.515625 
Q 47.21875 21.78125 47.21875 15.09375 
Q 47.21875 7.46875 41.1875 3.015625 
Q 35.15625 -1.421875 24.609375 -1.421875 
Q 20.21875 -1.421875 15.453125 -0.5625 
Q 10.6875 0.296875 5.421875 2 
L 5.421875 11.28125 
Q 10.40625 8.6875 15.234375 7.390625 
Q 20.0625 6.109375 24.8125 6.109375 
Q 31.15625 6.109375 34.5625 8.28125 
Q 37.984375 10.453125 37.984375 14.40625 
Q 37.984375 18.0625 35.515625 20.015625 
Q 33.0625 21.96875 24.703125 23.78125 
L 21.578125 24.515625 
Q 13.234375 26.265625 9.515625 29.90625 
Q 5.8125 33.546875 5.8125 39.890625 
Q 5.8125 47.609375 11.28125 51.796875 
Q 16.75 56 26.8125 56 
Q 31.78125 56 36.171875 55.265625 
Q 40.578125 54.546875 44.28125 53.078125 
z
" id="DejaVuSans-115"/>
      <path d="M 56.203125 29.59375 
L 56.203125 25.203125 
L 14.890625 25.203125 
Q 15.484375 15.921875 20.484375 11.0625 
Q 25.484375 6.203125 34.421875 6.203125 
Q 39.59375 6.203125 44.453125 7.46875 
Q 49.3125 8.734375 54.109375 11.28125 
L 54.109375 2.78125 
Q 49.265625 0.734375 44.1875 -0.34375 
Q 39.109375 -1.421875 33.890625 -1.421875 
Q 20.796875 -1.421875 13.15625 6.1875 
Q 5.515625 13.8125 5.515625 26.8125 
Q 5.515625 40.234375 12.765625 48.109375 
Q 20.015625 56 32.328125 56 
Q 43.359375 56 49.78125 48.890625 
Q 56.203125 41.796875 56.203125 29.59375 
z
M 47.21875 32.234375 
Q 47.125 39.59375 43.09375 43.984375 
Q 39.0625 48.390625 32.421875 48.390625 
Q 24.90625 48.390625 20.390625 44.140625 
Q 15.875 39.890625 15.1875 32.171875 
z
" id="DejaVuSans-101"/>
      <path d="M 50.984375 -16.609375 
L 50.984375 -23.578125 
L -0.984375 -23.578125 
L -0.984375 -16.609375 
z
" id="DejaVuSans-95"/>
      <path d="M 34.28125 27.484375 
Q 23.390625 27.484375 19.1875 25 
Q 14.984375 22.515625 14.984375 16.5 
Q 14.984375 11.71875 18.140625 8.90625 
Q 21.296875 6.109375 26.703125 6.109375 
Q 34.1875 6.109375 38.703125 11.40625 
Q 43.21875 16.703125 43.21875 25.484375 
L 43.21875 27.484375 
z
M 52.203125 31.203125 
L 52.203125 0 
L 43.21875 0 
L 43.21875 8.296875 
Q 40.140625 3.328125 35.546875 0.953125 
Q 30.953125 -1.421875 24.3125 -1.421875 
Q 15.921875 -1.421875 10.953125 3.296875 
Q 6 8.015625 6 15.921875 
Q 6 25.140625 12.171875 29.828125 
Q 18.359375 34.515625 30.609375 34.515625 
L 43.21875 34.515625 
L 43.21875 35.40625 
Q 43.21875 41.609375 39.140625 45 
Q 35.0625 48.390625 27.6875 48.390625 
Q 23 48.390625 18.546875 47.265625 
Q 14.109375 46.140625 10.015625 43.890625 
L 10.015625 52.203125 
Q 14.9375 54.109375 19.578125 55.046875 
Q 24.21875 56 28.609375 56 
Q 40.484375 56 46.34375 49.84375 
Q 52.203125 43.703125 52.203125 31.203125 
z
" id="DejaVuSans-97"/>
      <path d="M 52 44.1875 
Q 55.375 50.25 60.0625 53.125 
Q 64.75 56 71.09375 56 
Q 79.640625 56 84.28125 50.015625 
Q 88.921875 44.046875 88.921875 33.015625 
L 88.921875 0 
L 79.890625 0 
L 79.890625 32.71875 
Q 79.890625 40.578125 77.09375 44.375 
Q 74.3125 48.1875 68.609375 48.1875 
Q 61.625 48.1875 57.5625 43.546875 
Q 53.515625 38.921875 53.515625 30.90625 
L 53.515625 0 
L 44.484375 0 
L 44.484375 32.71875 
Q 44.484375 40.625 41.703125 44.40625 
Q 38.921875 48.1875 33.109375 48.1875 
Q 26.21875 48.1875 22.15625 43.53125 
Q 18.109375 38.875 18.109375 30.90625 
L 18.109375 0 
L 9.078125 0 
L 9.078125 54.6875 
L 18.109375 54.6875 
L 18.109375 46.1875 
Q 21.1875 51.21875 25.484375 53.609375 
Q 29.78125 56 35.6875 56 
Q 41.65625 56 45.828125 52.96875 
Q 50 49.953125 52 44.1875 
z
" id="DejaVuSans-109"/>
     </defs>
     <g transform="translate(347.67625 162.192063)scale(0.1 -0.1)">
      <use xlink:href="#DejaVuSans-99"/>
      <use x="54.980469" xlink:href="#DejaVuSans-108"/>
      <use x="82.763672" xlink:href="#DejaVuSans-111"/>
      <use x="143.945312" xlink:href="#DejaVuSans-115"/>
      <use x="196.044922" xlink:href="#DejaVuSans-101"/>
      <use x="257.568359" xlink:href="#DejaVuSans-95"/>
      <use x="307.568359" xlink:href="#DejaVuSans-97"/>
      <use x="368.847656" xlink:href="#DejaVuSans-109"/>
      <use x="466.259766" xlink:href="#DejaVuSans-99"/>
     </g>
    </g>
    <g id="line2d_17">
     <path d="M 319.67625 173.648313 
L 339.67625 173.648313 
" style="fill:none;stroke:#ff7f0e;stroke-linecap:square;stroke-width:1.5;"/>
    </g>
    <g id="line2d_18"/>
    <g id="text_13">
     <!-- close_amcx -->
     <defs>
      <path d="M 54.890625 54.6875 
L 35.109375 28.078125 
L 55.90625 0 
L 45.3125 0 
L 29.390625 21.484375 
L 13.484375 0 
L 2.875 0 
L 24.125 28.609375 
L 4.6875 54.6875 
L 15.28125 54.6875 
L 29.78125 35.203125 
L 44.28125 54.6875 
z
" id="DejaVuSans-120"/>
     </defs>
     <g transform="translate(347.67625 177.148313)scale(0.1 -0.1)">
      <use xlink:href="#DejaVuSans-99"/>
      <use x="54.980469" xlink:href="#DejaVuSans-108"/>
      <use x="82.763672" xlink:href="#DejaVuSans-111"/>
      <use x="143.945312" xlink:href="#DejaVuSans-115"/>
      <use x="196.044922" xlink:href="#DejaVuSans-101"/>
      <use x="257.568359" xlink:href="#DejaVuSans-95"/>
      <use x="307.568359" xlink:href="#DejaVuSans-97"/>
      <use x="368.847656" xlink:href="#DejaVuSans-109"/>
      <use x="466.259766" xlink:href="#DejaVuSans-99"/>
      <use x="521.240234" xlink:href="#DejaVuSans-120"/>
     </g>
    </g>
    <g id="line2d_19">
     <path d="M 319.67625 188.604563 
L 339.67625 188.604563 
" style="fill:none;stroke:#2ca02c;stroke-linecap:square;stroke-width:1.5;"/>
    </g>
    <g id="line2d_20"/>
    <g id="text_14">
     <!-- close_voo -->
     <defs>
      <path d="M 2.984375 54.6875 
L 12.5 54.6875 
L 29.59375 8.796875 
L 46.6875 54.6875 
L 56.203125 54.6875 
L 35.6875 0 
L 23.484375 0 
z
" id="DejaVuSans-118"/>
     </defs>
     <g transform="translate(347.67625 192.104563)scale(0.1 -0.1)">
      <use xlink:href="#DejaVuSans-99"/>
      <use x="54.980469" xlink:href="#DejaVuSans-108"/>
      <use x="82.763672" xlink:href="#DejaVuSans-111"/>
      <use x="143.945312" xlink:href="#DejaVuSans-115"/>
      <use x="196.044922" xlink:href="#DejaVuSans-101"/>
      <use x="257.568359" xlink:href="#DejaVuSans-95"/>
      <use x="307.568359" xlink:href="#DejaVuSans-118"/>
      <use x="366.748047" xlink:href="#DejaVuSans-111"/>
      <use x="427.929688" xlink:href="#DejaVuSans-111"/>
     </g>
    </g>
   </g>
  </g>
 </g>
 <defs>
  <clipPath id="p43e62d0f70">
   <rect height="266.112" width="357.12" x="57.6" y="41.472"/>
  </clipPath>
 </defs>
</svg>
